<svg width="36" height="36" viewBox="0 0 36 36" fill="none" xmlns="http://www.w3.org/2000/svg">
<circle cx="18" cy="18" r="18" fill="#00880D"/>
<path d="M11.25 16.5H24.75V24C24.75 24.1989 24.671 24.3897 24.5303 24.5303C24.3897 24.671 24.1989 24.75 24 24.75H12C11.8011 24.75 11.6103 24.671 11.4697 24.5303C11.329 24.3897 11.25 24.1989 11.25 24V16.5Z" stroke="white" stroke-linecap="round" stroke-linejoin="round"/>
<path d="M12 12.75H24C24.1989 12.75 24.3897 12.829 24.5303 12.9697C24.671 13.1103 24.75 13.3011 24.75 13.5V16.5H11.25V13.5C11.25 13.3011 11.329 13.1103 11.4697 12.9697C11.6103 12.829 11.8011 12.75 12 12.75V12.75Z" stroke="white" stroke-linecap="round" stroke-linejoin="round"/>
<path d="M21 11.25V14.25" stroke="white" stroke-linecap="round" stroke-linejoin="round"/>
<path d="M15 11.25V14.25" stroke="white" stroke-linecap="round" stroke-linejoin="round"/>
</svg>
