<svg width="36" height="36" viewBox="0 0 36 36" fill="none" xmlns="http://www.w3.org/2000/svg">
<circle cx="18" cy="18" r="18" fill="#FBAF18"/>
<path d="M20 17.41V11C20 10.4696 19.7893 9.96086 19.4142 9.58579C19.0391 9.21071 18.5304 9 18 9C17.4696 9 16.9609 9.21071 16.5858 9.58579C16.2107 9.96086 16 10.4696 16 11V17.41M20 17.41C21.0528 17.8695 21.9153 18.6775 22.4424 19.6981C22.9696 20.7187 23.1292 21.8897 22.8945 23.0141C22.6598 24.1386 22.0451 25.148 21.1538 25.8725C20.2624 26.5971 19.1487 26.9926 18 26.9926C16.8513 26.9926 15.7376 26.5971 14.8463 25.8725C13.9549 25.148 13.3402 24.1386 13.1055 23.0141C12.8708 21.8897 13.0304 20.7187 13.5576 19.6981C14.0847 18.6775 14.9472 17.8695 16 17.41H20Z" stroke="white" stroke-linecap="round" stroke-linejoin="round"/>
<path d="M18 24C19.1046 24 20 23.1046 20 22C20 20.8954 19.1046 20 18 20C16.8954 20 16 20.8954 16 22C16 23.1046 16.8954 24 18 24Z" stroke="white" stroke-linecap="round" stroke-linejoin="round"/>
</svg>
